<?xml version="1.0" standalone="no"?>
<!DOCTYPE svg PUBLIC "-//W3C//DTD SVG 20010904//EN"
 "http://www.w3.org/TR/2001/REC-SVG-20010904/DTD/svg10.dtd">
<svg version="1.0" xmlns="http://www.w3.org/2000/svg"
 width="128.000000pt" height="128.000000pt" viewBox="0 0 128.000000 128.000000"
 preserveAspectRatio="xMidYMid meet">

<g transform="translate(0.000000,128.000000) scale(0.100000,-0.100000)"
fill="#000000" stroke="none">
<path d="M718 1243 c-146 -126 -220 -284 -235 -504 l-6 -98 -28 14 c-37 20
-68 66 -89 133 -21 67 -42 76 -88 37 -88 -74 -137 -306 -97 -460 67 -258 328
-415 580 -350 231 60 378 267 362 505 -11 152 -55 255 -185 433 -84 116 -109
165 -124 243 -6 33 -12 65 -14 72 -6 21 -31 13 -76 -25z m42 -93 c0 -31 60
-138 128 -232 122 -166 154 -234 172 -365 13 -98 1 -177 -40 -259 -33 -67
-107 -147 -168 -182 l-40 -22 20 37 c16 31 19 52 15 113 -4 79 -23 126 -87
220 -16 25 -33 62 -37 83 -8 52 -27 56 -70 16 -45 -44 -72 -97 -87 -173 l-13
-61 -12 37 c-15 44 -37 49 -68 15 -46 -51 -59 -182 -24 -250 l19 -37 -40 22
c-102 58 -189 185 -208 306 -15 91 2 211 41 290 33 67 44 75 53 40 20 -82 107
-158 180 -158 l34 0 7 113 c4 61 13 140 21 175 21 94 79 200 154 281 25 27 34
31 41 20 5 -8 9 -21 9 -29z m-7 -784 c62 -100 62 -189 0 -257 -43 -47 -95 -65
-151 -50 -42 12 -95 61 -111 104 -12 32 -13 102 -2 130 6 16 9 16 31 -8 16
-17 34 -25 57 -25 32 0 33 1 33 43 1 59 17 125 42 165 l21 33 22 -38 c12 -21
38 -64 58 -97z"/>
</g>
</svg>
